<svg width="595" height="595" viewBox="0 0 595 595" fill="none" xmlns="http://www.w3.org/2000/svg">
<rect width="595" height="595" fill="#EEE3C5"/>
<path d="M400.537 279.025C405.46 287.018 406.691 313.883 406.691 326.317L357.456 320.988C362.379 316.192 359.507 290.57 357.456 278.359C363.473 282.089 388.684 280.357 400.537 279.025Z" fill="#22242E" stroke="#22242E"/>
<path d="M239.67 322.872C231.464 327.668 203.882 328.867 191.118 328.867L196.588 280.909C201.512 285.705 227.816 282.907 240.353 280.909C236.524 286.77 238.302 311.327 239.67 322.872Z" fill="#22242E" stroke="#22242E"/>
<path d="M196.588 162.412C191.665 154.419 190.434 127.554 190.434 115.12L239.669 120.449C234.746 125.245 237.618 150.867 239.669 163.078C233.652 159.348 208.441 161.08 196.588 162.412Z" fill="#22242E" stroke="#22242E"/>
<path d="M357.456 120.449C365.661 115.653 393.243 114.454 406.007 114.454L400.537 162.412C395.613 157.616 369.309 160.414 356.772 162.412C360.601 156.55 358.823 131.994 357.456 120.449Z" fill="#22242E" stroke="#22242E"/>
<path d="M182.6 249.538C173.343 247.278 153.029 229.136 144.029 220.348L182.6 190.217C182.6 196.997 203.171 213.129 213.456 220.348C206.514 221.855 189.993 240.436 182.6 249.538Z" fill="#22242E" stroke="#22242E"/>
<path d="M268.268 107.96C270.588 98.9429 289.212 79.1562 298.235 70.39L329.169 107.96C322.209 107.96 305.646 127.997 298.235 138.015C296.688 131.253 277.612 115.16 268.268 107.96Z" fill="#22242E" stroke="#22242E"/>
<path d="M412.942 191.404C422.361 193.663 443.031 211.805 452.189 220.593L412.942 250.724C412.942 243.945 392.01 227.812 381.544 220.593C388.608 219.086 405.419 200.506 412.942 191.404Z" fill="#22242E" stroke="#22242E"/>
<path d="M268.268 335.354C270.588 344.371 289.212 364.158 298.235 372.924L329.169 335.354C322.209 335.354 305.646 315.317 298.235 305.299C296.688 312.061 277.612 328.154 268.268 335.354Z" fill="#22242E" stroke="#22242E"/>
<path d="M381.026 341.547C405.203 341.547 411.945 342.552 416.808 345.315C398.777 361.547 352.769 397.475 305.594 393.356C325.902 370.748 345.244 345.315 352.014 335.895C355.755 339.352 360.353 341.547 381.026 341.547Z" fill="#0E89A0" stroke="#0E89A0"/>
<path d="M327.181 77.738C308.615 61.7278 307.308 54.4563 306.026 49.0346C330.387 50.6292 386.416 63.0036 415.648 99.744C385.646 98.2131 356.029 105.166 345.452 108.355C345.452 103.252 342.715 91.1329 327.181 77.738Z" fill="#0E89A0" stroke="#0E89A0"/>
<path d="M444.853 249.232C462.325 232.214 466.472 229.847 471.932 228.509C470.695 252.394 464.127 306.707 427.446 335.895C428.53 306.485 422.128 276.501 418.742 266.188C423.899 266.111 430.347 263.362 444.853 249.232Z" fill="#0E89A0" stroke="#0E89A0"/>
<path d="M424.545 139.021C424.545 115.575 424.422 111.721 427.274 106.993C443.878 124.611 475.988 171.33 471.599 217.267C450.848 195.878 426.727 178.76 416.808 173.874C420.37 170.241 424.545 159.744 424.545 139.021Z" fill="#0E89A0" stroke="#0E89A0"/>
<path d="M213.974 340.605C189.797 340.605 183.055 341.61 178.192 344.373C196.223 360.605 242.231 396.533 289.406 392.414C269.098 369.806 249.756 344.373 242.987 334.953C239.245 338.41 234.647 340.605 213.974 340.605Z" fill="#0E89A0" stroke="#0E89A0"/>
<path d="M267.819 77.1639C286.385 61.474 287.692 54.3479 288.974 49.0346C264.613 50.5973 208.584 62.7242 179.352 98.7298C209.354 97.2295 238.971 104.043 249.548 107.169C249.548 102.168 252.285 90.291 267.819 77.1639Z" fill="#0E89A0" stroke="#0E89A0"/>
<path d="M150.147 248.291C132.675 231.272 128.528 228.905 123.069 227.567C124.305 251.452 130.873 305.765 167.554 334.953C166.47 305.543 172.872 275.559 176.258 265.246C171.101 265.169 164.653 262.42 150.147 248.291Z" fill="#0E89A0" stroke="#0E89A0"/>
<path d="M170.455 138.079C170.455 114.633 170.578 110.779 167.726 106.051C151.122 123.669 119.012 170.388 123.401 216.325C144.152 194.936 168.273 177.818 178.192 172.932C174.63 169.299 170.455 158.802 170.455 138.079Z" fill="#0E89A0" stroke="#0E89A0"/>
<path d="M343.729 115.4L344.37 177.024L407.417 177.617L363.289 221.787L407.286 265.783L344.237 266.624L343.411 328.252L298.375 285.272L253.211 328.43L252.569 266.806L189.522 266.214L233.651 222.043L189.654 178.048L252.702 177.206L253.528 115.578L298.564 158.558L343.729 115.4Z" fill="#22242E"/>
<path d="M329.552 148.348L330.331 189.765L373.383 190.494L343.496 219.946L373.781 249.744L330.735 249.978L330.512 291.389L299.523 262.27L268.923 291.036L268.144 249.619L225.091 248.891L254.979 219.438L224.694 189.641L267.74 189.406L267.963 147.995L298.952 177.115L329.552 148.348Z" fill="#EEE3C5"/>
<path d="M319.042 175.631L319.547 202.488L347.465 202.961L328.084 222.059L347.723 241.381L319.809 241.534L319.665 268.387L299.57 249.504L279.727 268.158L279.222 241.301L251.304 240.828L270.685 221.73L251.046 202.407L278.959 202.255L279.104 175.402L299.199 194.285L319.042 175.631Z" fill="#B77D21"/>
<path d="M146.796 469.8C146.796 462.867 148.296 456.7 151.296 451.3C154.296 445.833 158.463 441.6 163.796 438.6C169.196 435.533 175.296 434 182.096 434C190.429 434 197.563 436.2 203.496 440.6C209.429 445 213.396 451 215.396 458.6H196.596C195.196 455.667 193.196 453.433 190.596 451.9C188.063 450.367 185.163 449.6 181.896 449.6C176.629 449.6 172.363 451.433 169.096 455.1C165.829 458.767 164.196 463.667 164.196 469.8C164.196 475.933 165.829 480.833 169.096 484.5C172.363 488.167 176.629 490 181.896 490C185.163 490 188.063 489.233 190.596 487.7C193.196 486.167 195.196 483.933 196.596 481H215.396C213.396 488.6 209.429 494.6 203.496 499C197.563 503.333 190.429 505.5 182.096 505.5C175.296 505.5 169.196 504 163.796 501C158.463 497.933 154.296 493.7 151.296 488.3C148.296 482.9 146.796 476.733 146.796 469.8ZM269.568 492.6H243.368L239.168 505H221.268L246.668 434.8H266.468L291.868 505H273.768L269.568 492.6ZM265.168 479.4L256.468 453.7L247.868 479.4H265.168ZM359.798 434.8L335.498 481.8V505H318.398V481.8L294.098 434.8H313.498L327.098 464.2L340.598 434.8H359.798ZM392.088 505.7C386.955 505.7 382.355 504.867 378.288 503.2C374.222 501.533 370.955 499.067 368.488 495.8C366.088 492.533 364.822 488.6 364.688 484H382.888C383.155 486.6 384.055 488.6 385.588 490C387.122 491.333 389.122 492 391.588 492C394.122 492 396.122 491.433 397.588 490.3C399.055 489.1 399.788 487.467 399.788 485.4C399.788 483.667 399.188 482.233 397.988 481.1C396.855 479.967 395.422 479.033 393.688 478.3C392.022 477.567 389.622 476.733 386.488 475.8C381.955 474.4 378.255 473 375.388 471.6C372.522 470.2 370.055 468.133 367.988 465.4C365.922 462.667 364.888 459.1 364.888 454.7C364.888 448.167 367.255 443.067 371.988 439.4C376.722 435.667 382.888 433.8 390.488 433.8C398.222 433.8 404.455 435.667 409.188 439.4C413.922 443.067 416.455 448.2 416.788 454.8H398.288C398.155 452.533 397.322 450.767 395.788 449.5C394.255 448.167 392.288 447.5 389.888 447.5C387.822 447.5 386.155 448.067 384.888 449.2C383.622 450.267 382.988 451.833 382.988 453.9C382.988 456.167 384.055 457.933 386.188 459.2C388.322 460.467 391.655 461.833 396.188 463.3C400.722 464.833 404.388 466.3 407.188 467.7C410.055 469.1 412.522 471.133 414.588 473.8C416.655 476.467 417.688 479.9 417.688 484.1C417.688 488.1 416.655 491.733 414.588 495C412.588 498.267 409.655 500.867 405.788 502.8C401.922 504.733 397.355 505.7 392.088 505.7ZM445.312 434.8V505H428.212V434.8H445.312Z" fill="black"/>
<path d="M155.634 526.72C155.634 525.68 155.859 524.755 156.309 523.945C156.759 523.125 157.384 522.49 158.184 522.04C158.994 521.58 159.909 521.35 160.929 521.35C162.179 521.35 163.249 521.68 164.139 522.34C165.029 523 165.624 523.9 165.924 525.04H163.104C162.894 524.6 162.594 524.265 162.204 524.035C161.824 523.805 161.389 523.69 160.899 523.69C160.109 523.69 159.469 523.965 158.979 524.515C158.489 525.065 158.244 525.8 158.244 526.72C158.244 527.64 158.489 528.375 158.979 528.925C159.469 529.475 160.109 529.75 160.899 529.75C161.389 529.75 161.824 529.635 162.204 529.405C162.594 529.175 162.894 528.84 163.104 528.4H165.924C165.624 529.54 165.029 530.44 164.139 531.1C163.249 531.75 162.179 532.075 160.929 532.075C159.909 532.075 158.994 531.85 158.184 531.4C157.384 530.94 156.759 530.305 156.309 529.495C155.859 528.685 155.634 527.76 155.634 526.72ZM175.385 527.68C175.385 527.92 175.37 528.17 175.34 528.43H169.535C169.575 528.95 169.74 529.35 170.03 529.63C170.33 529.9 170.695 530.035 171.125 530.035C171.765 530.035 172.21 529.765 172.46 529.225H175.19C175.05 529.775 174.795 530.27 174.425 530.71C174.065 531.15 173.61 531.495 173.06 531.745C172.51 531.995 171.895 532.12 171.215 532.12C170.395 532.12 169.665 531.945 169.025 531.595C168.385 531.245 167.885 530.745 167.525 530.095C167.165 529.445 166.985 528.685 166.985 527.815C166.985 526.945 167.16 526.185 167.51 525.535C167.87 524.885 168.37 524.385 169.01 524.035C169.65 523.685 170.385 523.51 171.215 523.51C172.025 523.51 172.745 523.68 173.375 524.02C174.005 524.36 174.495 524.845 174.845 525.475C175.205 526.105 175.385 526.84 175.385 527.68ZM172.76 527.005C172.76 526.565 172.61 526.215 172.31 525.955C172.01 525.695 171.635 525.565 171.185 525.565C170.755 525.565 170.39 525.69 170.09 525.94C169.8 526.19 169.62 526.545 169.55 527.005H172.76ZM181.838 523.54C182.818 523.54 183.598 523.86 184.178 524.5C184.768 525.13 185.063 526 185.063 527.11V532H182.513V527.455C182.513 526.895 182.368 526.46 182.078 526.15C181.788 525.84 181.398 525.685 180.908 525.685C180.418 525.685 180.028 525.84 179.738 526.15C179.448 526.46 179.303 526.895 179.303 527.455V532H176.738V523.63H179.303V524.74C179.563 524.37 179.913 524.08 180.353 523.87C180.793 523.65 181.288 523.54 181.838 523.54ZM191.511 529.825V532H190.206C189.276 532 188.551 531.775 188.031 531.325C187.511 530.865 187.251 530.12 187.251 529.09V525.76H186.231V523.63H187.251V521.59H189.816V523.63H191.496V525.76H189.816V529.12C189.816 529.37 189.876 529.55 189.996 529.66C190.116 529.77 190.316 529.825 190.596 529.825H191.511ZM195.504 525.025C195.804 524.565 196.179 524.205 196.629 523.945C197.079 523.675 197.579 523.54 198.129 523.54V526.255H197.424C196.784 526.255 196.304 526.395 195.984 526.675C195.664 526.945 195.504 527.425 195.504 528.115V532H192.939V523.63H195.504V525.025ZM198.845 527.8C198.845 526.94 199.005 526.185 199.325 525.535C199.655 524.885 200.1 524.385 200.66 524.035C201.22 523.685 201.845 523.51 202.535 523.51C203.125 523.51 203.64 523.63 204.08 523.87C204.53 524.11 204.875 524.425 205.115 524.815V523.63H207.68V532H205.115V530.815C204.865 531.205 204.515 531.52 204.065 531.76C203.625 532 203.11 532.12 202.52 532.12C201.84 532.12 201.22 531.945 200.66 531.595C200.1 531.235 199.655 530.73 199.325 530.08C199.005 529.42 198.845 528.66 198.845 527.8ZM205.115 527.815C205.115 527.175 204.935 526.67 204.575 526.3C204.225 525.93 203.795 525.745 203.285 525.745C202.775 525.745 202.34 525.93 201.98 526.3C201.63 526.66 201.455 527.16 201.455 527.8C201.455 528.44 201.63 528.95 201.98 529.33C202.34 529.7 202.775 529.885 203.285 529.885C203.795 529.885 204.225 529.7 204.575 529.33C204.935 528.96 205.115 528.455 205.115 527.815ZM212.101 520.9V532H209.536V520.9H212.101ZM223.693 530.14H219.763L219.133 532H216.448L220.258 521.47H223.228L227.038 532H224.323L223.693 530.14ZM223.033 528.16L221.728 524.305L220.438 528.16H223.033ZM231.603 532.12C230.873 532.12 230.223 531.995 229.653 531.745C229.083 531.495 228.633 531.155 228.303 530.725C227.973 530.285 227.788 529.795 227.748 529.255H230.283C230.313 529.545 230.448 529.78 230.688 529.96C230.928 530.14 231.223 530.23 231.573 530.23C231.893 530.23 232.138 530.17 232.308 530.05C232.488 529.92 232.578 529.755 232.578 529.555C232.578 529.315 232.453 529.14 232.203 529.03C231.953 528.91 231.548 528.78 230.988 528.64C230.388 528.5 229.888 528.355 229.488 528.205C229.088 528.045 228.743 527.8 228.453 527.47C228.163 527.13 228.018 526.675 228.018 526.105C228.018 525.625 228.148 525.19 228.408 524.8C228.678 524.4 229.068 524.085 229.578 523.855C230.098 523.625 230.713 523.51 231.423 523.51C232.473 523.51 233.298 523.77 233.898 524.29C234.508 524.81 234.858 525.5 234.948 526.36H232.578C232.538 526.07 232.408 525.84 232.188 525.67C231.978 525.5 231.698 525.415 231.348 525.415C231.048 525.415 230.818 525.475 230.658 525.595C230.498 525.705 230.418 525.86 230.418 526.06C230.418 526.3 230.543 526.48 230.793 526.6C231.053 526.72 231.453 526.84 231.993 526.96C232.613 527.12 233.118 527.28 233.508 527.44C233.898 527.59 234.238 527.84 234.528 528.19C234.828 528.53 234.983 528.99 234.993 529.57C234.993 530.06 234.853 530.5 234.573 530.89C234.303 531.27 233.908 531.57 233.388 531.79C232.878 532.01 232.283 532.12 231.603 532.12ZM237.852 522.76C237.402 522.76 237.032 522.63 236.742 522.37C236.462 522.1 236.322 521.77 236.322 521.38C236.322 520.98 236.462 520.65 236.742 520.39C237.032 520.12 237.402 519.985 237.852 519.985C238.292 519.985 238.652 520.12 238.932 520.39C239.222 520.65 239.367 520.98 239.367 521.38C239.367 521.77 239.222 522.1 238.932 522.37C238.652 522.63 238.292 522.76 237.852 522.76ZM239.127 523.63V532H236.562V523.63H239.127ZM240.476 527.8C240.476 526.94 240.636 526.185 240.956 525.535C241.286 524.885 241.731 524.385 242.291 524.035C242.851 523.685 243.476 523.51 244.166 523.51C244.756 523.51 245.271 523.63 245.711 523.87C246.161 524.11 246.506 524.425 246.746 524.815V523.63H249.311V532H246.746V530.815C246.496 531.205 246.146 531.52 245.696 531.76C245.256 532 244.741 532.12 244.151 532.12C243.471 532.12 242.851 531.945 242.291 531.595C241.731 531.235 241.286 530.73 240.956 530.08C240.636 529.42 240.476 528.66 240.476 527.8ZM246.746 527.815C246.746 527.175 246.566 526.67 246.206 526.3C245.856 525.93 245.426 525.745 244.916 525.745C244.406 525.745 243.971 525.93 243.611 526.3C243.261 526.66 243.086 527.16 243.086 527.8C243.086 528.44 243.261 528.95 243.611 529.33C243.971 529.7 244.406 529.885 244.916 529.885C245.426 529.885 245.856 529.7 246.206 529.33C246.566 528.96 246.746 528.455 246.746 527.815ZM256.267 523.54C257.247 523.54 258.027 523.86 258.607 524.5C259.197 525.13 259.492 526 259.492 527.11V532H256.942V527.455C256.942 526.895 256.797 526.46 256.507 526.15C256.217 525.84 255.827 525.685 255.337 525.685C254.847 525.685 254.457 525.84 254.167 526.15C253.877 526.46 253.732 526.895 253.732 527.455V532H251.167V523.63H253.732V524.74C253.992 524.37 254.342 524.08 254.782 523.87C255.222 523.65 255.717 523.54 256.267 523.54ZM273.483 521.47L269.838 528.52V532H267.273V528.52L263.628 521.47H266.538L268.578 525.88L270.603 521.47H273.483ZM278.326 532.12C277.506 532.12 276.766 531.945 276.106 531.595C275.456 531.245 274.941 530.745 274.561 530.095C274.191 529.445 274.006 528.685 274.006 527.815C274.006 526.955 274.196 526.2 274.576 525.55C274.956 524.89 275.476 524.385 276.136 524.035C276.796 523.685 277.536 523.51 278.356 523.51C279.176 523.51 279.916 523.685 280.576 524.035C281.236 524.385 281.756 524.89 282.136 525.55C282.516 526.2 282.706 526.955 282.706 527.815C282.706 528.675 282.511 529.435 282.121 530.095C281.741 530.745 281.216 531.245 280.546 531.595C279.886 531.945 279.146 532.12 278.326 532.12ZM278.326 529.9C278.816 529.9 279.231 529.72 279.571 529.36C279.921 529 280.096 528.485 280.096 527.815C280.096 527.145 279.926 526.63 279.586 526.27C279.256 525.91 278.846 525.73 278.356 525.73C277.856 525.73 277.441 525.91 277.111 526.27C276.781 526.62 276.616 527.135 276.616 527.815C276.616 528.485 276.776 529 277.096 529.36C277.426 529.72 277.836 529.9 278.326 529.9ZM292.332 523.63V532H289.767V530.86C289.507 531.23 289.152 531.53 288.702 531.76C288.262 531.98 287.772 532.09 287.232 532.09C286.592 532.09 286.027 531.95 285.537 531.67C285.047 531.38 284.667 530.965 284.397 530.425C284.127 529.885 283.992 529.25 283.992 528.52V523.63H286.542V528.175C286.542 528.735 286.687 529.17 286.977 529.48C287.267 529.79 287.657 529.945 288.147 529.945C288.647 529.945 289.042 529.79 289.332 529.48C289.622 529.17 289.767 528.735 289.767 528.175V523.63H292.332ZM298.84 529.825V532H297.535C296.605 532 295.88 531.775 295.36 531.325C294.84 530.865 294.58 530.12 294.58 529.09V525.76H293.56V523.63H294.58V521.59H297.145V523.63H298.825V525.76H297.145V529.12C297.145 529.37 297.205 529.55 297.325 529.66C297.445 529.77 297.645 529.825 297.925 529.825H298.84ZM305.413 523.54C306.373 523.54 307.143 523.86 307.723 524.5C308.303 525.13 308.593 526 308.593 527.11V532H306.043V527.455C306.043 526.895 305.898 526.46 305.608 526.15C305.318 525.84 304.928 525.685 304.438 525.685C303.948 525.685 303.558 525.84 303.268 526.15C302.978 526.46 302.833 526.895 302.833 527.455V532H300.268V520.9H302.833V524.755C303.093 524.385 303.448 524.09 303.898 523.87C304.348 523.65 304.853 523.54 305.413 523.54ZM317.365 532.105C316.595 532.105 315.905 531.98 315.295 531.73C314.685 531.48 314.195 531.11 313.825 530.62C313.465 530.13 313.275 529.54 313.255 528.85H315.985C316.025 529.24 316.16 529.54 316.39 529.75C316.62 529.95 316.92 530.05 317.29 530.05C317.67 530.05 317.97 529.965 318.19 529.795C318.41 529.615 318.52 529.37 318.52 529.06C318.52 528.8 318.43 528.585 318.25 528.415C318.08 528.245 317.865 528.105 317.605 527.995C317.355 527.885 316.995 527.76 316.525 527.62C315.845 527.41 315.29 527.2 314.86 526.99C314.43 526.78 314.06 526.47 313.75 526.06C313.44 525.65 313.285 525.115 313.285 524.455C313.285 523.475 313.64 522.71 314.35 522.16C315.06 521.6 315.985 521.32 317.125 521.32C318.285 521.32 319.22 521.6 319.93 522.16C320.64 522.71 321.02 523.48 321.07 524.47H318.295C318.275 524.13 318.15 523.865 317.92 523.675C317.69 523.475 317.395 523.375 317.035 523.375C316.725 523.375 316.475 523.46 316.285 523.63C316.095 523.79 316 524.025 316 524.335C316 524.675 316.16 524.94 316.48 525.13C316.8 525.32 317.3 525.525 317.98 525.745C318.66 525.975 319.21 526.195 319.63 526.405C320.06 526.615 320.43 526.92 320.74 527.32C321.05 527.72 321.205 528.235 321.205 528.865C321.205 529.465 321.05 530.01 320.74 530.5C320.44 530.99 320 531.38 319.42 531.67C318.84 531.96 318.155 532.105 317.365 532.105ZM326.593 532.12C325.773 532.12 325.033 531.945 324.373 531.595C323.723 531.245 323.208 530.745 322.828 530.095C322.458 529.445 322.273 528.685 322.273 527.815C322.273 526.955 322.463 526.2 322.843 525.55C323.223 524.89 323.743 524.385 324.403 524.035C325.063 523.685 325.803 523.51 326.623 523.51C327.443 523.51 328.183 523.685 328.843 524.035C329.503 524.385 330.023 524.89 330.403 525.55C330.783 526.2 330.973 526.955 330.973 527.815C330.973 528.675 330.778 529.435 330.388 530.095C330.008 530.745 329.483 531.245 328.813 531.595C328.153 531.945 327.413 532.12 326.593 532.12ZM326.593 529.9C327.083 529.9 327.498 529.72 327.838 529.36C328.188 529 328.363 528.485 328.363 527.815C328.363 527.145 328.193 526.63 327.853 526.27C327.523 525.91 327.113 525.73 326.623 525.73C326.123 525.73 325.708 525.91 325.378 526.27C325.048 526.62 324.883 527.135 324.883 527.815C324.883 528.485 325.043 529 325.363 529.36C325.693 529.72 326.103 529.9 326.593 529.9ZM331.824 527.815C331.824 526.945 331.999 526.185 332.349 525.535C332.709 524.885 333.204 524.385 333.834 524.035C334.474 523.685 335.204 523.51 336.024 523.51C337.074 523.51 337.949 523.785 338.649 524.335C339.359 524.885 339.824 525.66 340.044 526.66H337.314C337.084 526.02 336.639 525.7 335.979 525.7C335.509 525.7 335.134 525.885 334.854 526.255C334.574 526.615 334.434 527.135 334.434 527.815C334.434 528.495 334.574 529.02 334.854 529.39C335.134 529.75 335.509 529.93 335.979 529.93C336.639 529.93 337.084 529.61 337.314 528.97H340.044C339.824 529.95 339.359 530.72 338.649 531.28C337.939 531.84 337.064 532.12 336.024 532.12C335.204 532.12 334.474 531.945 333.834 531.595C333.204 531.245 332.709 530.745 332.349 530.095C331.999 529.445 331.824 528.685 331.824 527.815ZM342.706 522.76C342.256 522.76 341.886 522.63 341.596 522.37C341.316 522.1 341.176 521.77 341.176 521.38C341.176 520.98 341.316 520.65 341.596 520.39C341.886 520.12 342.256 519.985 342.706 519.985C343.146 519.985 343.506 520.12 343.786 520.39C344.076 520.65 344.221 520.98 344.221 521.38C344.221 521.77 344.076 522.1 343.786 522.37C343.506 522.63 343.146 522.76 342.706 522.76ZM343.981 523.63V532H341.416V523.63H343.981ZM345.33 527.8C345.33 526.94 345.49 526.185 345.81 525.535C346.14 524.885 346.585 524.385 347.145 524.035C347.705 523.685 348.33 523.51 349.02 523.51C349.61 523.51 350.125 523.63 350.565 523.87C351.015 524.11 351.36 524.425 351.6 524.815V523.63H354.165V532H351.6V530.815C351.35 531.205 351 531.52 350.55 531.76C350.11 532 349.595 532.12 349.005 532.12C348.325 532.12 347.705 531.945 347.145 531.595C346.585 531.235 346.14 530.73 345.81 530.08C345.49 529.42 345.33 528.66 345.33 527.8ZM351.6 527.815C351.6 527.175 351.42 526.67 351.06 526.3C350.71 525.93 350.28 525.745 349.77 525.745C349.26 525.745 348.825 525.93 348.465 526.3C348.115 526.66 347.94 527.16 347.94 527.8C347.94 528.44 348.115 528.95 348.465 529.33C348.825 529.7 349.26 529.885 349.77 529.885C350.28 529.885 350.71 529.7 351.06 529.33C351.42 528.96 351.6 528.455 351.6 527.815ZM358.585 520.9V532H356.02V520.9H358.585ZM366.188 521.47V532H363.623V521.47H366.188ZM373.147 523.54C374.127 523.54 374.907 523.86 375.487 524.5C376.077 525.13 376.372 526 376.372 527.11V532H373.822V527.455C373.822 526.895 373.677 526.46 373.387 526.15C373.097 525.84 372.707 525.685 372.217 525.685C371.727 525.685 371.337 525.84 371.047 526.15C370.757 526.46 370.612 526.895 370.612 527.455V532H368.047V523.63H370.612V524.74C370.872 524.37 371.222 524.08 371.662 523.87C372.102 523.65 372.597 523.54 373.147 523.54ZM379.444 522.76C378.994 522.76 378.624 522.63 378.334 522.37C378.054 522.1 377.914 521.77 377.914 521.38C377.914 520.98 378.054 520.65 378.334 520.39C378.624 520.12 378.994 519.985 379.444 519.985C379.884 519.985 380.244 520.12 380.524 520.39C380.814 520.65 380.959 520.98 380.959 521.38C380.959 521.77 380.814 522.1 380.524 522.37C380.244 522.63 379.884 522.76 379.444 522.76ZM380.719 523.63V532H378.154V523.63H380.719ZM387.243 529.825V532H385.938C385.008 532 384.283 531.775 383.763 531.325C383.243 530.865 382.983 530.12 382.983 529.09V525.76H381.963V523.63H382.983V521.59H385.548V523.63H387.228V525.76H385.548V529.12C385.548 529.37 385.608 529.55 385.728 529.66C385.848 529.77 386.048 529.825 386.328 529.825H387.243ZM389.962 522.76C389.512 522.76 389.142 522.63 388.852 522.37C388.572 522.1 388.432 521.77 388.432 521.38C388.432 520.98 388.572 520.65 388.852 520.39C389.142 520.12 389.512 519.985 389.962 519.985C390.402 519.985 390.762 520.12 391.042 520.39C391.332 520.65 391.477 520.98 391.477 521.38C391.477 521.77 391.332 522.1 391.042 522.37C390.762 522.63 390.402 522.76 389.962 522.76ZM391.237 523.63V532H388.672V523.63H391.237ZM392.586 527.8C392.586 526.94 392.746 526.185 393.066 525.535C393.396 524.885 393.841 524.385 394.401 524.035C394.961 523.685 395.586 523.51 396.276 523.51C396.866 523.51 397.381 523.63 397.821 523.87C398.271 524.11 398.616 524.425 398.856 524.815V523.63H401.421V532H398.856V530.815C398.606 531.205 398.256 531.52 397.806 531.76C397.366 532 396.851 532.12 396.261 532.12C395.581 532.12 394.961 531.945 394.401 531.595C393.841 531.235 393.396 530.73 393.066 530.08C392.746 529.42 392.586 528.66 392.586 527.8ZM398.856 527.815C398.856 527.175 398.676 526.67 398.316 526.3C397.966 525.93 397.536 525.745 397.026 525.745C396.516 525.745 396.081 525.93 395.721 526.3C395.371 526.66 395.196 527.16 395.196 527.8C395.196 528.44 395.371 528.95 395.721 529.33C396.081 529.7 396.516 529.885 397.026 529.885C397.536 529.885 397.966 529.7 398.316 529.33C398.676 528.96 398.856 528.455 398.856 527.815ZM407.941 529.825V532H406.636C405.706 532 404.981 531.775 404.461 531.325C403.941 530.865 403.681 530.12 403.681 529.09V525.76H402.661V523.63H403.681V521.59H406.246V523.63H407.926V525.76H406.246V529.12C406.246 529.37 406.306 529.55 406.426 529.66C406.546 529.77 406.746 529.825 407.026 529.825H407.941ZM410.66 522.76C410.21 522.76 409.84 522.63 409.55 522.37C409.27 522.1 409.13 521.77 409.13 521.38C409.13 520.98 409.27 520.65 409.55 520.39C409.84 520.12 410.21 519.985 410.66 519.985C411.1 519.985 411.46 520.12 411.74 520.39C412.03 520.65 412.175 520.98 412.175 521.38C412.175 521.77 412.03 522.1 411.74 522.37C411.46 522.63 411.1 522.76 410.66 522.76ZM411.935 523.63V532H409.37V523.63H411.935ZM417.559 529.6L419.374 523.63H422.104L419.134 532H415.969L412.999 523.63H415.744L417.559 529.6ZM431.073 527.68C431.073 527.92 431.058 528.17 431.028 528.43H425.223C425.263 528.95 425.428 529.35 425.718 529.63C426.018 529.9 426.383 530.035 426.813 530.035C427.453 530.035 427.898 529.765 428.148 529.225H430.878C430.738 529.775 430.483 530.27 430.113 530.71C429.753 531.15 429.298 531.495 428.748 531.745C428.198 531.995 427.583 532.12 426.903 532.12C426.083 532.12 425.353 531.945 424.713 531.595C424.073 531.245 423.573 530.745 423.213 530.095C422.853 529.445 422.673 528.685 422.673 527.815C422.673 526.945 422.848 526.185 423.198 525.535C423.558 524.885 424.058 524.385 424.698 524.035C425.338 523.685 426.073 523.51 426.903 523.51C427.713 523.51 428.433 523.68 429.063 524.02C429.693 524.36 430.183 524.845 430.533 525.475C430.893 526.105 431.073 526.84 431.073 527.68ZM428.448 527.005C428.448 526.565 428.298 526.215 427.998 525.955C427.698 525.695 427.323 525.565 426.873 525.565C426.443 525.565 426.078 525.69 425.778 525.94C425.488 526.19 425.308 526.545 425.238 527.005H428.448ZM435.832 532.12C435.102 532.12 434.452 531.995 433.882 531.745C433.312 531.495 432.862 531.155 432.532 530.725C432.202 530.285 432.017 529.795 431.977 529.255H434.512C434.542 529.545 434.677 529.78 434.917 529.96C435.157 530.14 435.452 530.23 435.802 530.23C436.122 530.23 436.367 530.17 436.537 530.05C436.717 529.92 436.807 529.755 436.807 529.555C436.807 529.315 436.682 529.14 436.432 529.03C436.182 528.91 435.777 528.78 435.217 528.64C434.617 528.5 434.117 528.355 433.717 528.205C433.317 528.045 432.972 527.8 432.682 527.47C432.392 527.13 432.247 526.675 432.247 526.105C432.247 525.625 432.377 525.19 432.637 524.8C432.907 524.4 433.297 524.085 433.807 523.855C434.327 523.625 434.942 523.51 435.652 523.51C436.702 523.51 437.527 523.77 438.127 524.29C438.737 524.81 439.087 525.5 439.177 526.36H436.807C436.767 526.07 436.637 525.84 436.417 525.67C436.207 525.5 435.927 525.415 435.577 525.415C435.277 525.415 435.047 525.475 434.887 525.595C434.727 525.705 434.647 525.86 434.647 526.06C434.647 526.3 434.772 526.48 435.022 526.6C435.282 526.72 435.682 526.84 436.222 526.96C436.842 527.12 437.347 527.28 437.737 527.44C438.127 527.59 438.467 527.84 438.757 528.19C439.057 528.53 439.212 528.99 439.222 529.57C439.222 530.06 439.082 530.5 438.802 530.89C438.532 531.27 438.137 531.57 437.617 531.79C437.107 532.01 436.512 532.12 435.832 532.12Z" fill="black"/>
</svg>
